<svg xmlns="http://www.w3.org/2000/svg" width="920" height="338" viewBox="0 0 920 338" role="img" aria-label="GitHub 动态"><defs><linearGradient id="surface" x1="0" y1="0" x2="1" y2="1"><stop offset="0%" stop-color="#FEFDF9"/><stop offset="48%" stop-color="#F8F8FF"/><stop offset="100%" stop-color="#F3FBF9"/></linearGradient><linearGradient id="flow" x1="0" y1="0" x2="1" y2="0"><stop offset="0%" stop-color="#A8DDF0"/><stop offset="48%" stop-color="#9EA6F8"/><stop offset="100%" stop-color="#92D5C9"/></linearGradient><radialGradient id="orb-blue" cx="32%" cy="24%" r="78%"><stop offset="0%" stop-color="#FFFFFF" stop-opacity="0.98"/><stop offset="60%" stop-color="#EAF4FF" stop-opacity="0.88"/><stop offset="100%" stop-color="#D9E8FA" stop-opacity="0.72"/></radialGradient><radialGradient id="orb-mint" cx="32%" cy="24%" r="78%"><stop offset="0%" stop-color="#FFFFFF" stop-opacity="0.98"/><stop offset="60%" stop-color="#EAF9F5" stop-opacity="0.88"/><stop offset="100%" stop-color="#D9F0EB" stop-opacity="0.72"/></radialGradient><radialGradient id="orb-violet" cx="32%" cy="24%" r="78%"><stop offset="0%" stop-color="#FFFFFF" stop-opacity="0.98"/><stop offset="60%" stop-color="#F0EFFF" stop-opacity="0.9"/><stop offset="100%" stop-color="#E2E1FA" stop-opacity="0.74"/></radialGradient><filter id="soft-shadow" x="-35%" y="-35%" width="170%" height="180%"><feDropShadow dx="0" dy="8" stdDeviation="10" flood-color="#7283A8" flood-opacity="0.13"/></filter><filter id="blur" x="-50%" y="-50%" width="200%" height="200%"><feGaussianBlur stdDeviation="18"/></filter><style>text{font-family:-apple-system,BlinkMacSystemFont,'Segoe UI','Microsoft YaHei',Arial,sans-serif}.eyebrow{font-size:12px;font-weight:600;letter-spacing:2px;fill:#77839A}.subtitle{font-size:11px;fill:#9AA4B5}.value{font-size:22px;font-weight:700;fill:#3D4864}.label{font-size:11px;font-weight:500;fill:#7A869C}.panel-title{font-size:12px;font-weight:600;fill:#6E7A91}.micro{font-size:10px;fill:#98A2B3}</style></defs><rect x="1" y="1" width="918" height="336" rx="24" fill="url(#surface)" stroke="#E7EAF0"/><ellipse cx="112" cy="54" rx="95" ry="46" fill="#DDF2FF" opacity="0.42" filter="url(#blur)"/><ellipse cx="778" cy="78" rx="108" ry="48" fill="#E7E4FF" opacity="0.46" filter="url(#blur)"/><ellipse cx="704" cy="280" rx="120" ry="42" fill="#DCF5EE" opacity="0.38" filter="url(#blur)"/><text x="34" y="32" class="eyebrow">公开活动概览</text><text x="886" y="32" class="subtitle" text-anchor="end">由仓库工作流每日更新</text><path d="M96 103 C166 50 229 147 306 98 S442 50 516 101 S655 149 724 97 S825 65 866 103" fill="none" stroke="url(#flow)" stroke-width="2" opacity="0.55"/><path d="M100 114 C180 151 239 64 319 110 S461 151 538 108 S676 65 754 111 S839 132 870 107" fill="none" stroke="#FFFFFF" stroke-width="5" opacity="0.52"/><circle cx="145" cy="104" r="45" fill="url(#orb-blue)" stroke="#CFE5F6" stroke-width="1.2" filter="url(#soft-shadow)"/><circle cx="132" cy="88" r="12" fill="#FFFFFF" opacity="0.3"/><text x="145" y="105" class="value" text-anchor="middle">1</text><text x="145" y="126" class="label" text-anchor="middle">公开仓库</text><circle cx="355" cy="104" r="45" fill="url(#orb-mint)" stroke="#CDEAE3" stroke-width="1.2" filter="url(#soft-shadow)"/><circle cx="342" cy="88" r="12" fill="#FFFFFF" opacity="0.3"/><text x="355" y="105" class="value" text-anchor="middle">0</text><text x="355" y="126" class="label" text-anchor="middle">累计星标</text><circle cx="565" cy="104" r="45" fill="url(#orb-violet)" stroke="#D9D7F5" stroke-width="1.2" filter="url(#soft-shadow)"/><circle cx="552" cy="88" r="12" fill="#FFFFFF" opacity="0.3"/><text x="565" y="105" class="value" text-anchor="middle">11</text><text x="565" y="126" class="label" text-anchor="middle">年度贡献</text><circle cx="775" cy="104" r="45" fill="url(#orb-blue)" stroke="#D5E6F4" stroke-width="1.2" filter="url(#soft-shadow)"/><circle cx="762" cy="88" r="12" fill="#FFFFFF" opacity="0.3"/><text x="775" y="105" class="value" text-anchor="middle">4</text><text x="775" y="126" class="label" text-anchor="middle">关注者</text><rect x="34" y="166" width="852" height="132" rx="18" fill="#FFFFFF" fill-opacity="0.58" stroke="#FFFFFF" stroke-opacity="0.92" filter="url(#soft-shadow)"/><rect x="35" y="167" width="850" height="130" rx="17" fill="none" stroke="#DEE7F0" stroke-opacity="0.72"/><text x="58" y="191" class="panel-title">过去 12 个月的贡献记录</text><text x="94" y="222" class="micro" text-anchor="middle">一</text><text x="94" y="248" class="micro" text-anchor="middle">三</text><text x="94" y="274" class="micro" text-anchor="middle">五</text><rect x="115" y="206" width="10" height="10" rx="3" fill="#E9EFF4"><title>2025-07-13：0 次贡献</title></rect><rect x="115" y="219" width="10" height="10" rx="3" fill="#E9EFF4"><title>2025-07-14：0 次贡献</title></rect><rect x="115" y="232" width="10" height="10" rx="3" fill="#E9EFF4"><title>2025-07-15：0 次贡献</title></rect><rect x="115" y="245" width="10" height="10" rx="3" fill="#E9EFF4"><title>2025-07-16：0 次贡献</title></rect><rect x="115" y="258" width="10" height="10" rx="3" fill="#E9EFF4"><title>2025-07-17：0 次贡献</title></rect><rect x="115" y="271" width="10" height="10" rx="3" fill="#E9EFF4"><title>2025-07-18：0 次贡献</title></rect><rect x="115" y="284" width="10" height="10" rx="3" fill="#E9EFF4"><title>2025-07-19：0 次贡献</title></rect><rect x="128" y="206" width="10" height="10" rx="3" fill="#E9EFF4"><title>2025-07-20：0 次贡献</title></rect><rect x="128" y="219" width="10" height="10" rx="3" fill="#E9EFF4"><title>2025-07-21：0 次贡献</title></rect><rect x="128" y="232" width="10" height="10" rx="3" fill="#E9EFF4"><title>2025-07-22：0 次贡献</title></rect><rect x="128" y="245" width="10" height="10" rx="3" fill="#E9EFF4"><title>2025-07-23：0 次贡献</title></rect><rect x="128" y="258" width="10" height="10" rx="3" fill="#E9EFF4"><title>2025-07-24：0 次贡献</title></rect><rect x="128" y="271" width="10" height="10" rx="3" fill="#E9EFF4"><title>2025-07-25：0 次贡献</title></rect><rect x="128" y="284" width="10" height="10" rx="3" fill="#E9EFF4"><title>2025-07-26：0 次贡献</title></rect><rect x="141" y="206" width="10" height="10" rx="3" fill="#E9EFF4"><title>2025-07-27：0 次贡献</title></rect><rect x="141" y="219" width="10" height="10" rx="3" fill="#E9EFF4"><title>2025-07-28：0 次贡献</title></rect><rect x="141" y="232" width="10" height="10" rx="3" fill="#E9EFF4"><title>2025-07-29：0 次贡献</title></rect><rect x="141" y="245" width="10" height="10" rx="3" fill="#E9EFF4"><title>2025-07-30：0 次贡献</title></rect><rect x="141" y="258" width="10" height="10" rx="3" fill="#E9EFF4"><title>2025-07-31：0 次贡献</title></rect><rect x="141" y="271" width="10" height="10" rx="3" fill="#E9EFF4"><title>2025-08-01：0 次贡献</title></rect><rect x="141" y="284" width="10" height="10" rx="3" fill="#E9EFF4"><title>2025-08-02：0 次贡献</title></rect><rect x="154" y="206" width="10" height="10" rx="3" fill="#E9EFF4"><title>2025-08-03：0 次贡献</title></rect><rect x="154" y="219" width="10" height="10" rx="3" fill="#E9EFF4"><title>2025-08-04：0 次贡献</title></rect><rect x="154" y="232" width="10" height="10" rx="3" fill="#E9EFF4"><title>2025-08-05：0 次贡献</title></rect><rect x="154" y="245" width="10" height="10" rx="3" fill="#E9EFF4"><title>2025-08-06：0 次贡献</title></rect><rect x="154" y="258" width="10" height="10" rx="3" fill="#E9EFF4"><title>2025-08-07：0 次贡献</title></rect><rect x="154" y="271" width="10" height="10" rx="3" fill="#E9EFF4"><title>2025-08-08：0 次贡献</title></rect><rect x="154" y="284" width="10" height="10" rx="3" fill="#E9EFF4"><title>2025-08-09：0 次贡献</title></rect><rect x="167" y="206" width="10" height="10" rx="3" fill="#E9EFF4"><title>2025-08-10：0 次贡献</title></rect><rect x="167" y="219" width="10" height="10" rx="3" fill="#E9EFF4"><title>2025-08-11：0 次贡献</title></rect><rect x="167" y="232" width="10" height="10" rx="3" fill="#E9EFF4"><title>2025-08-12：0 次贡献</title></rect><rect x="167" y="245" width="10" height="10" rx="3" fill="#E9EFF4"><title>2025-08-13：0 次贡献</title></rect><rect x="167" y="258" width="10" height="10" rx="3" fill="#E9EFF4"><title>2025-08-14：0 次贡献</title></rect><rect x="167" y="271" width="10" height="10" rx="3" fill="#E9EFF4"><title>2025-08-15：0 次贡献</title></rect><rect x="167" y="284" width="10" height="10" rx="3" fill="#E9EFF4"><title>2025-08-16：0 次贡献</title></rect><rect x="180" y="206" width="10" height="10" rx="3" fill="#E9EFF4"><title>2025-08-17：0 次贡献</title></rect><rect x="180" y="219" width="10" height="10" rx="3" fill="#E9EFF4"><title>2025-08-18：0 次贡献</title></rect><rect x="180" y="232" width="10" height="10" rx="3" fill="#E9EFF4"><title>2025-08-19：0 次贡献</title></rect><rect x="180" y="245" width="10" height="10" rx="3" fill="#E9EFF4"><title>2025-08-20：0 次贡献</title></rect><rect x="180" y="258" width="10" height="10" rx="3" fill="#E9EFF4"><title>2025-08-21：0 次贡献</title></rect><rect x="180" y="271" width="10" height="10" rx="3" fill="#E9EFF4"><title>2025-08-22：0 次贡献</title></rect><rect x="180" y="284" width="10" height="10" rx="3" fill="#E9EFF4"><title>2025-08-23：0 次贡献</title></rect><rect x="193" y="206" width="10" height="10" rx="3" fill="#E9EFF4"><title>2025-08-24：0 次贡献</title></rect><rect x="193" y="219" width="10" height="10" rx="3" fill="#E9EFF4"><title>2025-08-25：0 次贡献</title></rect><rect x="193" y="232" width="10" height="10" rx="3" fill="#E9EFF4"><title>2025-08-26：0 次贡献</title></rect><rect x="193" y="245" width="10" height="10" rx="3" fill="#E9EFF4"><title>2025-08-27：0 次贡献</title></rect><rect x="193" y="258" width="10" height="10" rx="3" fill="#E9EFF4"><title>2025-08-28：0 次贡献</title></rect><rect x="193" y="271" width="10" height="10" rx="3" fill="#E9EFF4"><title>2025-08-29：0 次贡献</title></rect><rect x="193" y="284" width="10" height="10" rx="3" fill="#E9EFF4"><title>2025-08-30：0 次贡献</title></rect><rect x="206" y="206" width="10" height="10" rx="3" fill="#E9EFF4"><title>2025-08-31：0 次贡献</title></rect><rect x="206" y="219" width="10" height="10" rx="3" fill="#E9EFF4"><title>2025-09-01：0 次贡献</title></rect><rect x="206" y="232" width="10" height="10" rx="3" fill="#E9EFF4"><title>2025-09-02：0 次贡献</title></rect><rect x="206" y="245" width="10" height="10" rx="3" fill="#E9EFF4"><title>2025-09-03：0 次贡献</title></rect><rect x="206" y="258" width="10" height="10" rx="3" fill="#E9EFF4"><title>2025-09-04：0 次贡献</title></rect><rect x="206" y="271" width="10" height="10" rx="3" fill="#E9EFF4"><title>2025-09-05：0 次贡献</title></rect><rect x="206" y="284" width="10" height="10" rx="3" fill="#E9EFF4"><title>2025-09-06：0 次贡献</title></rect><rect x="219" y="206" width="10" height="10" rx="3" fill="#E9EFF4"><title>2025-09-07：0 次贡献</title></rect><rect x="219" y="219" width="10" height="10" rx="3" fill="#E9EFF4"><title>2025-09-08：0 次贡献</title></rect><rect x="219" y="232" width="10" height="10" rx="3" fill="#E9EFF4"><title>2025-09-09：0 次贡献</title></rect><rect x="219" y="245" width="10" height="10" rx="3" fill="#E9EFF4"><title>2025-09-10：0 次贡献</title></rect><rect x="219" y="258" width="10" height="10" rx="3" fill="#E9EFF4"><title>2025-09-11：0 次贡献</title></rect><rect x="219" y="271" width="10" height="10" rx="3" fill="#E9EFF4"><title>2025-09-12：0 次贡献</title></rect><rect x="219" y="284" width="10" height="10" rx="3" fill="#E9EFF4"><title>2025-09-13：0 次贡献</title></rect><rect x="232" y="206" width="10" height="10" rx="3" fill="#E9EFF4"><title>2025-09-14：0 次贡献</title></rect><rect x="232" y="219" width="10" height="10" rx="3" fill="#E9EFF4"><title>2025-09-15：0 次贡献</title></rect><rect x="232" y="232" width="10" height="10" rx="3" fill="#E9EFF4"><title>2025-09-16：0 次贡献</title></rect><rect x="232" y="245" width="10" height="10" rx="3" fill="#E9EFF4"><title>2025-09-17：0 次贡献</title></rect><rect x="232" y="258" width="10" height="10" rx="3" fill="#E9EFF4"><title>2025-09-18：0 次贡献</title></rect><rect x="232" y="271" width="10" height="10" rx="3" fill="#E9EFF4"><title>2025-09-19：0 次贡献</title></rect><rect x="232" y="284" width="10" height="10" rx="3" fill="#E9EFF4"><title>2025-09-20：0 次贡献</title></rect><rect x="245" y="206" width="10" height="10" rx="3" fill="#E9EFF4"><title>2025-09-21：0 次贡献</title></rect><rect x="245" y="219" width="10" height="10" rx="3" fill="#E9EFF4"><title>2025-09-22：0 次贡献</title></rect><rect x="245" y="232" width="10" height="10" rx="3" fill="#E9EFF4"><title>2025-09-23：0 次贡献</title></rect><rect x="245" y="245" width="10" height="10" rx="3" fill="#E9EFF4"><title>2025-09-24：0 次贡献</title></rect><rect x="245" y="258" width="10" height="10" rx="3" fill="#E9EFF4"><title>2025-09-25：0 次贡献</title></rect><rect x="245" y="271" width="10" height="10" rx="3" fill="#E9EFF4"><title>2025-09-26：0 次贡献</title></rect><rect x="245" y="284" width="10" height="10" rx="3" fill="#E9EFF4"><title>2025-09-27：0 次贡献</title></rect><rect x="258" y="206" width="10" height="10" rx="3" fill="#E9EFF4"><title>2025-09-28：0 次贡献</title></rect><rect x="258" y="219" width="10" height="10" rx="3" fill="#E9EFF4"><title>2025-09-29：0 次贡献</title></rect><rect x="258" y="232" width="10" height="10" rx="3" fill="#E9EFF4"><title>2025-09-30：0 次贡献</title></rect><rect x="258" y="245" width="10" height="10" rx="3" fill="#E9EFF4"><title>2025-10-01：0 次贡献</title></rect><rect x="258" y="258" width="10" height="10" rx="3" fill="#E9EFF4"><title>2025-10-02：0 次贡献</title></rect><rect x="258" y="271" width="10" height="10" rx="3" fill="#E9EFF4"><title>2025-10-03：0 次贡献</title></rect><rect x="258" y="284" width="10" height="10" rx="3" fill="#E9EFF4"><title>2025-10-04：0 次贡献</title></rect><rect x="271" y="206" width="10" height="10" rx="3" fill="#E9EFF4"><title>2025-10-05：0 次贡献</title></rect><rect x="271" y="219" width="10" height="10" rx="3" fill="#E9EFF4"><title>2025-10-06：0 次贡献</title></rect><rect x="271" y="232" width="10" height="10" rx="3" fill="#E9EFF4"><title>2025-10-07：0 次贡献</title></rect><rect x="271" y="245" width="10" height="10" rx="3" fill="#E9EFF4"><title>2025-10-08：0 次贡献</title></rect><rect x="271" y="258" width="10" height="10" rx="3" fill="#E9EFF4"><title>2025-10-09：0 次贡献</title></rect><rect x="271" y="271" width="10" height="10" rx="3" fill="#E9EFF4"><title>2025-10-10：0 次贡献</title></rect><rect x="271" y="284" width="10" height="10" rx="3" fill="#E9EFF4"><title>2025-10-11：0 次贡献</title></rect><rect x="284" y="206" width="10" height="10" rx="3" fill="#E9EFF4"><title>2025-10-12：0 次贡献</title></rect><rect x="284" y="219" width="10" height="10" rx="3" fill="#E9EFF4"><title>2025-10-13：0 次贡献</title></rect><rect x="284" y="232" width="10" height="10" rx="3" fill="#E9EFF4"><title>2025-10-14：0 次贡献</title></rect><rect x="284" y="245" width="10" height="10" rx="3" fill="#E9EFF4"><title>2025-10-15：0 次贡献</title></rect><rect x="284" y="258" width="10" height="10" rx="3" fill="#E9EFF4"><title>2025-10-16：0 次贡献</title></rect><rect x="284" y="271" width="10" height="10" rx="3" fill="#E9EFF4"><title>2025-10-17：0 次贡献</title></rect><rect x="284" y="284" width="10" height="10" rx="3" fill="#E9EFF4"><title>2025-10-18：0 次贡献</title></rect><rect x="297" y="206" width="10" height="10" rx="3" fill="#E9EFF4"><title>2025-10-19：0 次贡献</title></rect><rect x="297" y="219" width="10" height="10" rx="3" fill="#E9EFF4"><title>2025-10-20：0 次贡献</title></rect><rect x="297" y="232" width="10" height="10" rx="3" fill="#E9EFF4"><title>2025-10-21：0 次贡献</title></rect><rect x="297" y="245" width="10" height="10" rx="3" fill="#E9EFF4"><title>2025-10-22：0 次贡献</title></rect><rect x="297" y="258" width="10" height="10" rx="3" fill="#E9EFF4"><title>2025-10-23：0 次贡献</title></rect><rect x="297" y="271" width="10" height="10" rx="3" fill="#E9EFF4"><title>2025-10-24：0 次贡献</title></rect><rect x="297" y="284" width="10" height="10" rx="3" fill="#E9EFF4"><title>2025-10-25：0 次贡献</title></rect><rect x="310" y="206" width="10" height="10" rx="3" fill="#E9EFF4"><title>2025-10-26：0 次贡献</title></rect><rect x="310" y="219" width="10" height="10" rx="3" fill="#E9EFF4"><title>2025-10-27：0 次贡献</title></rect><rect x="310" y="232" width="10" height="10" rx="3" fill="#E9EFF4"><title>2025-10-28：0 次贡献</title></rect><rect x="310" y="245" width="10" height="10" rx="3" fill="#E9EFF4"><title>2025-10-29：0 次贡献</title></rect><rect x="310" y="258" width="10" height="10" rx="3" fill="#E9EFF4"><title>2025-10-30：0 次贡献</title></rect><rect x="310" y="271" width="10" height="10" rx="3" fill="#E9EFF4"><title>2025-10-31：0 次贡献</title></rect><rect x="310" y="284" width="10" height="10" rx="3" fill="#E9EFF4"><title>2025-11-01：0 次贡献</title></rect><rect x="323" y="206" width="10" height="10" rx="3" fill="#E9EFF4"><title>2025-11-02：0 次贡献</title></rect><rect x="323" y="219" width="10" height="10" rx="3" fill="#E9EFF4"><title>2025-11-03：0 次贡献</title></rect><rect x="323" y="232" width="10" height="10" rx="3" fill="#E9EFF4"><title>2025-11-04：0 次贡献</title></rect><rect x="323" y="245" width="10" height="10" rx="3" fill="#E9EFF4"><title>2025-11-05：0 次贡献</title></rect><rect x="323" y="258" width="10" height="10" rx="3" fill="#E9EFF4"><title>2025-11-06：0 次贡献</title></rect><rect x="323" y="271" width="10" height="10" rx="3" fill="#E9EFF4"><title>2025-11-07：0 次贡献</title></rect><rect x="323" y="284" width="10" height="10" rx="3" fill="#E9EFF4"><title>2025-11-08：0 次贡献</title></rect><rect x="336" y="206" width="10" height="10" rx="3" fill="#E9EFF4"><title>2025-11-09：0 次贡献</title></rect><rect x="336" y="219" width="10" height="10" rx="3" fill="#E9EFF4"><title>2025-11-10：0 次贡献</title></rect><rect x="336" y="232" width="10" height="10" rx="3" fill="#E9EFF4"><title>2025-11-11：0 次贡献</title></rect><rect x="336" y="245" width="10" height="10" rx="3" fill="#E9EFF4"><title>2025-11-12：0 次贡献</title></rect><rect x="336" y="258" width="10" height="10" rx="3" fill="#E9EFF4"><title>2025-11-13：0 次贡献</title></rect><rect x="336" y="271" width="10" height="10" rx="3" fill="#E9EFF4"><title>2025-11-14：0 次贡献</title></rect><rect x="336" y="284" width="10" height="10" rx="3" fill="#E9EFF4"><title>2025-11-15：0 次贡献</title></rect><rect x="349" y="206" width="10" height="10" rx="3" fill="#E9EFF4"><title>2025-11-16：0 次贡献</title></rect><rect x="349" y="219" width="10" height="10" rx="3" fill="#E9EFF4"><title>2025-11-17：0 次贡献</title></rect><rect x="349" y="232" width="10" height="10" rx="3" fill="#E9EFF4"><title>2025-11-18：0 次贡献</title></rect><rect x="349" y="245" width="10" height="10" rx="3" fill="#E9EFF4"><title>2025-11-19：0 次贡献</title></rect><rect x="349" y="258" width="10" height="10" rx="3" fill="#E9EFF4"><title>2025-11-20：0 次贡献</title></rect><rect x="349" y="271" width="10" height="10" rx="3" fill="#E9EFF4"><title>2025-11-21：0 次贡献</title></rect><rect x="349" y="284" width="10" height="10" rx="3" fill="#E9EFF4"><title>2025-11-22：0 次贡献</title></rect><rect x="362" y="206" width="10" height="10" rx="3" fill="#E9EFF4"><title>2025-11-23：0 次贡献</title></rect><rect x="362" y="219" width="10" height="10" rx="3" fill="#E9EFF4"><title>2025-11-24：0 次贡献</title></rect><rect x="362" y="232" width="10" height="10" rx="3" fill="#E9EFF4"><title>2025-11-25：0 次贡献</title></rect><rect x="362" y="245" width="10" height="10" rx="3" fill="#E9EFF4"><title>2025-11-26：0 次贡献</title></rect><rect x="362" y="258" width="10" height="10" rx="3" fill="#E9EFF4"><title>2025-11-27：0 次贡献</title></rect><rect x="362" y="271" width="10" height="10" rx="3" fill="#E9EFF4"><title>2025-11-28：0 次贡献</title></rect><rect x="362" y="284" width="10" height="10" rx="3" fill="#E9EFF4"><title>2025-11-29：0 次贡献</title></rect><rect x="375" y="206" width="10" height="10" rx="3" fill="#E9EFF4"><title>2025-11-30：0 次贡献</title></rect><rect x="375" y="219" width="10" height="10" rx="3" fill="#E9EFF4"><title>2025-12-01：0 次贡献</title></rect><rect x="375" y="232" width="10" height="10" rx="3" fill="#E9EFF4"><title>2025-12-02：0 次贡献</title></rect><rect x="375" y="245" width="10" height="10" rx="3" fill="#E9EFF4"><title>2025-12-03：0 次贡献</title></rect><rect x="375" y="258" width="10" height="10" rx="3" fill="#E9EFF4"><title>2025-12-04：0 次贡献</title></rect><rect x="375" y="271" width="10" height="10" rx="3" fill="#E9EFF4"><title>2025-12-05：0 次贡献</title></rect><rect x="375" y="284" width="10" height="10" rx="3" fill="#E9EFF4"><title>2025-12-06：0 次贡献</title></rect><rect x="388" y="206" width="10" height="10" rx="3" fill="#E9EFF4"><title>2025-12-07：0 次贡献</title></rect><rect x="388" y="219" width="10" height="10" rx="3" fill="#E9EFF4"><title>2025-12-08：0 次贡献</title></rect><rect x="388" y="232" width="10" height="10" rx="3" fill="#E9EFF4"><title>2025-12-09：0 次贡献</title></rect><rect x="388" y="245" width="10" height="10" rx="3" fill="#E9EFF4"><title>2025-12-10：0 次贡献</title></rect><rect x="388" y="258" width="10" height="10" rx="3" fill="#E9EFF4"><title>2025-12-11：0 次贡献</title></rect><rect x="388" y="271" width="10" height="10" rx="3" fill="#E9EFF4"><title>2025-12-12：0 次贡献</title></rect><rect x="388" y="284" width="10" height="10" rx="3" fill="#E9EFF4"><title>2025-12-13：0 次贡献</title></rect><rect x="401" y="206" width="10" height="10" rx="3" fill="#E9EFF4"><title>2025-12-14：0 次贡献</title></rect><rect x="401" y="219" width="10" height="10" rx="3" fill="#E9EFF4"><title>2025-12-15：0 次贡献</title></rect><rect x="401" y="232" width="10" height="10" rx="3" fill="#E9EFF4"><title>2025-12-16：0 次贡献</title></rect><rect x="401" y="245" width="10" height="10" rx="3" fill="#E9EFF4"><title>2025-12-17：0 次贡献</title></rect><rect x="401" y="258" width="10" height="10" rx="3" fill="#E9EFF4"><title>2025-12-18：0 次贡献</title></rect><rect x="401" y="271" width="10" height="10" rx="3" fill="#E9EFF4"><title>2025-12-19：0 次贡献</title></rect><rect x="401" y="284" width="10" height="10" rx="3" fill="#E9EFF4"><title>2025-12-20：0 次贡献</title></rect><rect x="414" y="206" width="10" height="10" rx="3" fill="#E9EFF4"><title>2025-12-21：0 次贡献</title></rect><rect x="414" y="219" width="10" height="10" rx="3" fill="#E9EFF4"><title>2025-12-22：0 次贡献</title></rect><rect x="414" y="232" width="10" height="10" rx="3" fill="#E9EFF4"><title>2025-12-23：0 次贡献</title></rect><rect x="414" y="245" width="10" height="10" rx="3" fill="#E9EFF4"><title>2025-12-24：0 次贡献</title></rect><rect x="414" y="258" width="10" height="10" rx="3" fill="#E9EFF4"><title>2025-12-25：0 次贡献</title></rect><rect x="414" y="271" width="10" height="10" rx="3" fill="#E9EFF4"><title>2025-12-26：0 次贡献</title></rect><rect x="414" y="284" width="10" height="10" rx="3" fill="#E9EFF4"><title>2025-12-27：0 次贡献</title></rect><rect x="427" y="206" width="10" height="10" rx="3" fill="#E9EFF4"><title>2025-12-28：0 次贡献</title></rect><rect x="427" y="219" width="10" height="10" rx="3" fill="#E9EFF4"><title>2025-12-29：0 次贡献</title></rect><rect x="427" y="232" width="10" height="10" rx="3" fill="#E9EFF4"><title>2025-12-30：0 次贡献</title></rect><rect x="427" y="245" width="10" height="10" rx="3" fill="#E9EFF4"><title>2025-12-31：0 次贡献</title></rect><rect x="427" y="258" width="10" height="10" rx="3" fill="#E9EFF4"><title>2026-01-01：0 次贡献</title></rect><rect x="427" y="271" width="10" height="10" rx="3" fill="#E9EFF4"><title>2026-01-02：0 次贡献</title></rect><rect x="427" y="284" width="10" height="10" rx="3" fill="#E9EFF4"><title>2026-01-03：0 次贡献</title></rect><rect x="440" y="206" width="10" height="10" rx="3" fill="#E9EFF4"><title>2026-01-04：0 次贡献</title></rect><rect x="440" y="219" width="10" height="10" rx="3" fill="#E9EFF4"><title>2026-01-05：0 次贡献</title></rect><rect x="440" y="232" width="10" height="10" rx="3" fill="#E9EFF4"><title>2026-01-06：0 次贡献</title></rect><rect x="440" y="245" width="10" height="10" rx="3" fill="#E9EFF4"><title>2026-01-07：0 次贡献</title></rect><rect x="440" y="258" width="10" height="10" rx="3" fill="#E9EFF4"><title>2026-01-08：0 次贡献</title></rect><rect x="440" y="271" width="10" height="10" rx="3" fill="#E9EFF4"><title>2026-01-09：0 次贡献</title></rect><rect x="440" y="284" width="10" height="10" rx="3" fill="#E9EFF4"><title>2026-01-10：0 次贡献</title></rect><rect x="453" y="206" width="10" height="10" rx="3" fill="#E9EFF4"><title>2026-01-11：0 次贡献</title></rect><rect x="453" y="219" width="10" height="10" rx="3" fill="#E9EFF4"><title>2026-01-12：0 次贡献</title></rect><rect x="453" y="232" width="10" height="10" rx="3" fill="#E9EFF4"><title>2026-01-13：0 次贡献</title></rect><rect x="453" y="245" width="10" height="10" rx="3" fill="#E9EFF4"><title>2026-01-14：0 次贡献</title></rect><rect x="453" y="258" width="10" height="10" rx="3" fill="#E9EFF4"><title>2026-01-15：0 次贡献</title></rect><rect x="453" y="271" width="10" height="10" rx="3" fill="#E9EFF4"><title>2026-01-16：0 次贡献</title></rect><rect x="453" y="284" width="10" height="10" rx="3" fill="#E9EFF4"><title>2026-01-17：0 次贡献</title></rect><rect x="466" y="206" width="10" height="10" rx="3" fill="#E9EFF4"><title>2026-01-18：0 次贡献</title></rect><rect x="466" y="219" width="10" height="10" rx="3" fill="#E9EFF4"><title>2026-01-19：0 次贡献</title></rect><rect x="466" y="232" width="10" height="10" rx="3" fill="#E9EFF4"><title>2026-01-20：0 次贡献</title></rect><rect x="466" y="245" width="10" height="10" rx="3" fill="#E9EFF4"><title>2026-01-21：0 次贡献</title></rect><rect x="466" y="258" width="10" height="10" rx="3" fill="#E9EFF4"><title>2026-01-22：0 次贡献</title></rect><rect x="466" y="271" width="10" height="10" rx="3" fill="#E9EFF4"><title>2026-01-23：0 次贡献</title></rect><rect x="466" y="284" width="10" height="10" rx="3" fill="#E9EFF4"><title>2026-01-24：0 次贡献</title></rect><rect x="479" y="206" width="10" height="10" rx="3" fill="#E9EFF4"><title>2026-01-25：0 次贡献</title></rect><rect x="479" y="219" width="10" height="10" rx="3" fill="#E9EFF4"><title>2026-01-26：0 次贡献</title></rect><rect x="479" y="232" width="10" height="10" rx="3" fill="#E9EFF4"><title>2026-01-27：0 次贡献</title></rect><rect x="479" y="245" width="10" height="10" rx="3" fill="#E9EFF4"><title>2026-01-28：0 次贡献</title></rect><rect x="479" y="258" width="10" height="10" rx="3" fill="#E9EFF4"><title>2026-01-29：0 次贡献</title></rect><rect x="479" y="271" width="10" height="10" rx="3" fill="#E9EFF4"><title>2026-01-30：0 次贡献</title></rect><rect x="479" y="284" width="10" height="10" rx="3" fill="#E9EFF4"><title>2026-01-31：0 次贡献</title></rect><rect x="492" y="206" width="10" height="10" rx="3" fill="#E9EFF4"><title>2026-02-01：0 次贡献</title></rect><rect x="492" y="219" width="10" height="10" rx="3" fill="#E9EFF4"><title>2026-02-02：0 次贡献</title></rect><rect x="492" y="232" width="10" height="10" rx="3" fill="#E9EFF4"><title>2026-02-03：0 次贡献</title></rect><rect x="492" y="245" width="10" height="10" rx="3" fill="#E9EFF4"><title>2026-02-04：0 次贡献</title></rect><rect x="492" y="258" width="10" height="10" rx="3" fill="#E9EFF4"><title>2026-02-05：0 次贡献</title></rect><rect x="492" y="271" width="10" height="10" rx="3" fill="#E9EFF4"><title>2026-02-06：0 次贡献</title></rect><rect x="492" y="284" width="10" height="10" rx="3" fill="#E9EFF4"><title>2026-02-07：0 次贡献</title></rect><rect x="505" y="206" width="10" height="10" rx="3" fill="#E9EFF4"><title>2026-02-08：0 次贡献</title></rect><rect x="505" y="219" width="10" height="10" rx="3" fill="#E9EFF4"><title>2026-02-09：0 次贡献</title></rect><rect x="505" y="232" width="10" height="10" rx="3" fill="#E9EFF4"><title>2026-02-10：0 次贡献</title></rect><rect x="505" y="245" width="10" height="10" rx="3" fill="#E9EFF4"><title>2026-02-11：0 次贡献</title></rect><rect x="505" y="258" width="10" height="10" rx="3" fill="#E9EFF4"><title>2026-02-12：0 次贡献</title></rect><rect x="505" y="271" width="10" height="10" rx="3" fill="#E9EFF4"><title>2026-02-13：0 次贡献</title></rect><rect x="505" y="284" width="10" height="10" rx="3" fill="#E9EFF4"><title>2026-02-14：0 次贡献</title></rect><rect x="518" y="206" width="10" height="10" rx="3" fill="#E9EFF4"><title>2026-02-15：0 次贡献</title></rect><rect x="518" y="219" width="10" height="10" rx="3" fill="#E9EFF4"><title>2026-02-16：0 次贡献</title></rect><rect x="518" y="232" width="10" height="10" rx="3" fill="#E9EFF4"><title>2026-02-17：0 次贡献</title></rect><rect x="518" y="245" width="10" height="10" rx="3" fill="#E9EFF4"><title>2026-02-18：0 次贡献</title></rect><rect x="518" y="258" width="10" height="10" rx="3" fill="#E9EFF4"><title>2026-02-19：0 次贡献</title></rect><rect x="518" y="271" width="10" height="10" rx="3" fill="#E9EFF4"><title>2026-02-20：0 次贡献</title></rect><rect x="518" y="284" width="10" height="10" rx="3" fill="#E9EFF4"><title>2026-02-21：0 次贡献</title></rect><rect x="531" y="206" width="10" height="10" rx="3" fill="#E9EFF4"><title>2026-02-22：0 次贡献</title></rect><rect x="531" y="219" width="10" height="10" rx="3" fill="#E9EFF4"><title>2026-02-23：0 次贡献</title></rect><rect x="531" y="232" width="10" height="10" rx="3" fill="#E9EFF4"><title>2026-02-24：0 次贡献</title></rect><rect x="531" y="245" width="10" height="10" rx="3" fill="#E9EFF4"><title>2026-02-25：0 次贡献</title></rect><rect x="531" y="258" width="10" height="10" rx="3" fill="#E9EFF4"><title>2026-02-26：0 次贡献</title></rect><rect x="531" y="271" width="10" height="10" rx="3" fill="#E9EFF4"><title>2026-02-27：0 次贡献</title></rect><rect x="531" y="284" width="10" height="10" rx="3" fill="#E9EFF4"><title>2026-02-28：0 次贡献</title></rect><rect x="544" y="206" width="10" height="10" rx="3" fill="#E9EFF4"><title>2026-03-01：0 次贡献</title></rect><rect x="544" y="219" width="10" height="10" rx="3" fill="#E9EFF4"><title>2026-03-02：0 次贡献</title></rect><rect x="544" y="232" width="10" height="10" rx="3" fill="#E9EFF4"><title>2026-03-03：0 次贡献</title></rect><rect x="544" y="245" width="10" height="10" rx="3" fill="#E9EFF4"><title>2026-03-04：0 次贡献</title></rect><rect x="544" y="258" width="10" height="10" rx="3" fill="#E9EFF4"><title>2026-03-05：0 次贡献</title></rect><rect x="544" y="271" width="10" height="10" rx="3" fill="#E9EFF4"><title>2026-03-06：0 次贡献</title></rect><rect x="544" y="284" width="10" height="10" rx="3" fill="#E9EFF4"><title>2026-03-07：0 次贡献</title></rect><rect x="557" y="206" width="10" height="10" rx="3" fill="#E9EFF4"><title>2026-03-08：0 次贡献</title></rect><rect x="557" y="219" width="10" height="10" rx="3" fill="#E9EFF4"><title>2026-03-09：0 次贡献</title></rect><rect x="557" y="232" width="10" height="10" rx="3" fill="#E9EFF4"><title>2026-03-10：0 次贡献</title></rect><rect x="557" y="245" width="10" height="10" rx="3" fill="#E9EFF4"><title>2026-03-11：0 次贡献</title></rect><rect x="557" y="258" width="10" height="10" rx="3" fill="#E9EFF4"><title>2026-03-12：0 次贡献</title></rect><rect x="557" y="271" width="10" height="10" rx="3" fill="#E9EFF4"><title>2026-03-13：0 次贡献</title></rect><rect x="557" y="284" width="10" height="10" rx="3" fill="#E9EFF4"><title>2026-03-14：0 次贡献</title></rect><rect x="570" y="206" width="10" height="10" rx="3" fill="#E9EFF4"><title>2026-03-15：0 次贡献</title></rect><rect x="570" y="219" width="10" height="10" rx="3" fill="#E9EFF4"><title>2026-03-16：0 次贡献</title></rect><rect x="570" y="232" width="10" height="10" rx="3" fill="#E9EFF4"><title>2026-03-17：0 次贡献</title></rect><rect x="570" y="245" width="10" height="10" rx="3" fill="#E9EFF4"><title>2026-03-18：0 次贡献</title></rect><rect x="570" y="258" width="10" height="10" rx="3" fill="#E9EFF4"><title>2026-03-19：0 次贡献</title></rect><rect x="570" y="271" width="10" height="10" rx="3" fill="#E9EFF4"><title>2026-03-20：0 次贡献</title></rect><rect x="570" y="284" width="10" height="10" rx="3" fill="#E9EFF4"><title>2026-03-21：0 次贡献</title></rect><rect x="583" y="206" width="10" height="10" rx="3" fill="#E9EFF4"><title>2026-03-22：0 次贡献</title></rect><rect x="583" y="219" width="10" height="10" rx="3" fill="#E9EFF4"><title>2026-03-23：0 次贡献</title></rect><rect x="583" y="232" width="10" height="10" rx="3" fill="#E9EFF4"><title>2026-03-24：0 次贡献</title></rect><rect x="583" y="245" width="10" height="10" rx="3" fill="#E9EFF4"><title>2026-03-25：0 次贡献</title></rect><rect x="583" y="258" width="10" height="10" rx="3" fill="#E9EFF4"><title>2026-03-26：0 次贡献</title></rect><rect x="583" y="271" width="10" height="10" rx="3" fill="#E9EFF4"><title>2026-03-27：0 次贡献</title></rect><rect x="583" y="284" width="10" height="10" rx="3" fill="#E9EFF4"><title>2026-03-28：0 次贡献</title></rect><rect x="596" y="206" width="10" height="10" rx="3" fill="#E9EFF4"><title>2026-03-29：0 次贡献</title></rect><rect x="596" y="219" width="10" height="10" rx="3" fill="#E9EFF4"><title>2026-03-30：0 次贡献</title></rect><rect x="596" y="232" width="10" height="10" rx="3" fill="#E9EFF4"><title>2026-03-31：0 次贡献</title></rect><rect x="596" y="245" width="10" height="10" rx="3" fill="#E9EFF4"><title>2026-04-01：0 次贡献</title></rect><rect x="596" y="258" width="10" height="10" rx="3" fill="#E9EFF4"><title>2026-04-02：0 次贡献</title></rect><rect x="596" y="271" width="10" height="10" rx="3" fill="#E9EFF4"><title>2026-04-03：0 次贡献</title></rect><rect x="596" y="284" width="10" height="10" rx="3" fill="#E9EFF4"><title>2026-04-04：0 次贡献</title></rect><rect x="609" y="206" width="10" height="10" rx="3" fill="#E9EFF4"><title>2026-04-05：0 次贡献</title></rect><rect x="609" y="219" width="10" height="10" rx="3" fill="#E9EFF4"><title>2026-04-06：0 次贡献</title></rect><rect x="609" y="232" width="10" height="10" rx="3" fill="#E9EFF4"><title>2026-04-07：0 次贡献</title></rect><rect x="609" y="245" width="10" height="10" rx="3" fill="#E9EFF4"><title>2026-04-08：0 次贡献</title></rect><rect x="609" y="258" width="10" height="10" rx="3" fill="#E9EFF4"><title>2026-04-09：0 次贡献</title></rect><rect x="609" y="271" width="10" height="10" rx="3" fill="#E9EFF4"><title>2026-04-10：0 次贡献</title></rect><rect x="609" y="284" width="10" height="10" rx="3" fill="#E9EFF4"><title>2026-04-11：0 次贡献</title></rect><rect x="622" y="206" width="10" height="10" rx="3" fill="#E9EFF4"><title>2026-04-12：0 次贡献</title></rect><rect x="622" y="219" width="10" height="10" rx="3" fill="#E9EFF4"><title>2026-04-13：0 次贡献</title></rect><rect x="622" y="232" width="10" height="10" rx="3" fill="#E9EFF4"><title>2026-04-14：0 次贡献</title></rect><rect x="622" y="245" width="10" height="10" rx="3" fill="#E9EFF4"><title>2026-04-15：0 次贡献</title></rect><rect x="622" y="258" width="10" height="10" rx="3" fill="#E9EFF4"><title>2026-04-16：0 次贡献</title></rect><rect x="622" y="271" width="10" height="10" rx="3" fill="#E9EFF4"><title>2026-04-17：0 次贡献</title></rect><rect x="622" y="284" width="10" height="10" rx="3" fill="#E9EFF4"><title>2026-04-18：0 次贡献</title></rect><rect x="635" y="206" width="10" height="10" rx="3" fill="#E9EFF4"><title>2026-04-19：0 次贡献</title></rect><rect x="635" y="219" width="10" height="10" rx="3" fill="#E9EFF4"><title>2026-04-20：0 次贡献</title></rect><rect x="635" y="232" width="10" height="10" rx="3" fill="#E9EFF4"><title>2026-04-21：0 次贡献</title></rect><rect x="635" y="245" width="10" height="10" rx="3" fill="#E9EFF4"><title>2026-04-22：0 次贡献</title></rect><rect x="635" y="258" width="10" height="10" rx="3" fill="#E9EFF4"><title>2026-04-23：0 次贡献</title></rect><rect x="635" y="271" width="10" height="10" rx="3" fill="#E9EFF4"><title>2026-04-24：0 次贡献</title></rect><rect x="635" y="284" width="10" height="10" rx="3" fill="#E9EFF4"><title>2026-04-25：0 次贡献</title></rect><rect x="648" y="206" width="10" height="10" rx="3" fill="#E9EFF4"><title>2026-04-26：0 次贡献</title></rect><rect x="648" y="219" width="10" height="10" rx="3" fill="#E9EFF4"><title>2026-04-27：0 次贡献</title></rect><rect x="648" y="232" width="10" height="10" rx="3" fill="#E9EFF4"><title>2026-04-28：0 次贡献</title></rect><rect x="648" y="245" width="10" height="10" rx="3" fill="#E9EFF4"><title>2026-04-29：0 次贡献</title></rect><rect x="648" y="258" width="10" height="10" rx="3" fill="#E9EFF4"><title>2026-04-30：0 次贡献</title></rect><rect x="648" y="271" width="10" height="10" rx="3" fill="#E9EFF4"><title>2026-05-01：0 次贡献</title></rect><rect x="648" y="284" width="10" height="10" rx="3" fill="#E9EFF4"><title>2026-05-02：0 次贡献</title></rect><rect x="661" y="206" width="10" height="10" rx="3" fill="#E9EFF4"><title>2026-05-03：0 次贡献</title></rect><rect x="661" y="219" width="10" height="10" rx="3" fill="#E9EFF4"><title>2026-05-04：0 次贡献</title></rect><rect x="661" y="232" width="10" height="10" rx="3" fill="#E9EFF4"><title>2026-05-05：0 次贡献</title></rect><rect x="661" y="245" width="10" height="10" rx="3" fill="#E9EFF4"><title>2026-05-06：0 次贡献</title></rect><rect x="661" y="258" width="10" height="10" rx="3" fill="#E9EFF4"><title>2026-05-07：0 次贡献</title></rect><rect x="661" y="271" width="10" height="10" rx="3" fill="#E9EFF4"><title>2026-05-08：0 次贡献</title></rect><rect x="661" y="284" width="10" height="10" rx="3" fill="#E9EFF4"><title>2026-05-09：0 次贡献</title></rect><rect x="674" y="206" width="10" height="10" rx="3" fill="#E9EFF4"><title>2026-05-10：0 次贡献</title></rect><rect x="674" y="219" width="10" height="10" rx="3" fill="#E9EFF4"><title>2026-05-11：0 次贡献</title></rect><rect x="674" y="232" width="10" height="10" rx="3" fill="#E9EFF4"><title>2026-05-12：0 次贡献</title></rect><rect x="674" y="245" width="10" height="10" rx="3" fill="#E9EFF4"><title>2026-05-13：0 次贡献</title></rect><rect x="674" y="258" width="10" height="10" rx="3" fill="#E9EFF4"><title>2026-05-14：0 次贡献</title></rect><rect x="674" y="271" width="10" height="10" rx="3" fill="#E9EFF4"><title>2026-05-15：0 次贡献</title></rect><rect x="674" y="284" width="10" height="10" rx="3" fill="#E9EFF4"><title>2026-05-16：0 次贡献</title></rect><rect x="687" y="206" width="10" height="10" rx="3" fill="#E9EFF4"><title>2026-05-17：0 次贡献</title></rect><rect x="687" y="219" width="10" height="10" rx="3" fill="#E9EFF4"><title>2026-05-18：0 次贡献</title></rect><rect x="687" y="232" width="10" height="10" rx="3" fill="#E9EFF4"><title>2026-05-19：0 次贡献</title></rect><rect x="687" y="245" width="10" height="10" rx="3" fill="#E9EFF4"><title>2026-05-20：0 次贡献</title></rect><rect x="687" y="258" width="10" height="10" rx="3" fill="#E9EFF4"><title>2026-05-21：0 次贡献</title></rect><rect x="687" y="271" width="10" height="10" rx="3" fill="#E9EFF4"><title>2026-05-22：0 次贡献</title></rect><rect x="687" y="284" width="10" height="10" rx="3" fill="#E9EFF4"><title>2026-05-23：0 次贡献</title></rect><rect x="700" y="206" width="10" height="10" rx="3" fill="#E9EFF4"><title>2026-05-24：0 次贡献</title></rect><rect x="700" y="219" width="10" height="10" rx="3" fill="#E9EFF4"><title>2026-05-25：0 次贡献</title></rect><rect x="700" y="232" width="10" height="10" rx="3" fill="#E9EFF4"><title>2026-05-26：0 次贡献</title></rect><rect x="700" y="245" width="10" height="10" rx="3" fill="#E9EFF4"><title>2026-05-27：0 次贡献</title></rect><rect x="700" y="258" width="10" height="10" rx="3" fill="#E9EFF4"><title>2026-05-28：0 次贡献</title></rect><rect x="700" y="271" width="10" height="10" rx="3" fill="#E9EFF4"><title>2026-05-29：0 次贡献</title></rect><rect x="700" y="284" width="10" height="10" rx="3" fill="#E9EFF4"><title>2026-05-30：0 次贡献</title></rect><rect x="713" y="206" width="10" height="10" rx="3" fill="#E9EFF4"><title>2026-05-31：0 次贡献</title></rect><rect x="713" y="219" width="10" height="10" rx="3" fill="#E9EFF4"><title>2026-06-01：0 次贡献</title></rect><rect x="713" y="232" width="10" height="10" rx="3" fill="#E9EFF4"><title>2026-06-02：0 次贡献</title></rect><rect x="713" y="245" width="10" height="10" rx="3" fill="#E9EFF4"><title>2026-06-03：0 次贡献</title></rect><rect x="713" y="258" width="10" height="10" rx="3" fill="#E9EFF4"><title>2026-06-04：0 次贡献</title></rect><rect x="713" y="271" width="10" height="10" rx="3" fill="#E9EFF4"><title>2026-06-05：0 次贡献</title></rect><rect x="713" y="284" width="10" height="10" rx="3" fill="#E9EFF4"><title>2026-06-06：0 次贡献</title></rect><rect x="726" y="206" width="10" height="10" rx="3" fill="#E9EFF4"><title>2026-06-07：0 次贡献</title></rect><rect x="726" y="219" width="10" height="10" rx="3" fill="#E9EFF4"><title>2026-06-08：0 次贡献</title></rect><rect x="726" y="232" width="10" height="10" rx="3" fill="#E9EFF4"><title>2026-06-09：0 次贡献</title></rect><rect x="726" y="245" width="10" height="10" rx="3" fill="#E9EFF4"><title>2026-06-10：0 次贡献</title></rect><rect x="726" y="258" width="10" height="10" rx="3" fill="#E9EFF4"><title>2026-06-11：0 次贡献</title></rect><rect x="726" y="271" width="10" height="10" rx="3" fill="#E9EFF4"><title>2026-06-12：0 次贡献</title></rect><rect x="726" y="284" width="10" height="10" rx="3" fill="#E9EFF4"><title>2026-06-13：0 次贡献</title></rect><rect x="739" y="206" width="10" height="10" rx="3" fill="#E9EFF4"><title>2026-06-14：0 次贡献</title></rect><rect x="739" y="219" width="10" height="10" rx="3" fill="#E9EFF4"><title>2026-06-15：0 次贡献</title></rect><rect x="739" y="232" width="10" height="10" rx="3" fill="#E9EFF4"><title>2026-06-16：0 次贡献</title></rect><rect x="739" y="245" width="10" height="10" rx="3" fill="#E9EFF4"><title>2026-06-17：0 次贡献</title></rect><rect x="739" y="258" width="10" height="10" rx="3" fill="#E9EFF4"><title>2026-06-18：0 次贡献</title></rect><rect x="739" y="271" width="10" height="10" rx="3" fill="#E9EFF4"><title>2026-06-19：0 次贡献</title></rect><rect x="739" y="284" width="10" height="10" rx="3" fill="#E9EFF4"><title>2026-06-20：0 次贡献</title></rect><rect x="752" y="206" width="10" height="10" rx="3" fill="#E9EFF4"><title>2026-06-21：0 次贡献</title></rect><rect x="752" y="219" width="10" height="10" rx="3" fill="#E9EFF4"><title>2026-06-22：0 次贡献</title></rect><rect x="752" y="232" width="10" height="10" rx="3" fill="#E9EFF4"><title>2026-06-23：0 次贡献</title></rect><rect x="752" y="245" width="10" height="10" rx="3" fill="#E9EFF4"><title>2026-06-24：0 次贡献</title></rect><rect x="752" y="258" width="10" height="10" rx="3" fill="#E9EFF4"><title>2026-06-25：0 次贡献</title></rect><rect x="752" y="271" width="10" height="10" rx="3" fill="#E9EFF4"><title>2026-06-26：0 次贡献</title></rect><rect x="752" y="284" width="10" height="10" rx="3" fill="#E9EFF4"><title>2026-06-27：0 次贡献</title></rect><rect x="765" y="206" width="10" height="10" rx="3" fill="#E9EFF4"><title>2026-06-28：0 次贡献</title></rect><rect x="765" y="219" width="10" height="10" rx="3" fill="#E9EFF4"><title>2026-06-29：0 次贡献</title></rect><rect x="765" y="232" width="10" height="10" rx="3" fill="#E9EFF4"><title>2026-06-30：0 次贡献</title></rect><rect x="765" y="245" width="10" height="10" rx="3" fill="#E9EFF4"><title>2026-07-01：0 次贡献</title></rect><rect x="765" y="258" width="10" height="10" rx="3" fill="#E9EFF4"><title>2026-07-02：0 次贡献</title></rect><rect x="765" y="271" width="10" height="10" rx="3" fill="#E9EFF4"><title>2026-07-03：0 次贡献</title></rect><rect x="765" y="284" width="10" height="10" rx="3" fill="#E9EFF4"><title>2026-07-04：0 次贡献</title></rect><rect x="778" y="206" width="10" height="10" rx="3" fill="#E9EFF4"><title>2026-07-05：0 次贡献</title></rect><rect x="778" y="219" width="10" height="10" rx="3" fill="#E9EFF4"><title>2026-07-06：0 次贡献</title></rect><rect x="778" y="232" width="10" height="10" rx="3" fill="#E9EFF4"><title>2026-07-07：0 次贡献</title></rect><rect x="778" y="245" width="10" height="10" rx="3" fill="#E9EFF4"><title>2026-07-08：0 次贡献</title></rect><rect x="778" y="258" width="10" height="10" rx="3" fill="#E9EFF4"><title>2026-07-09：0 次贡献</title></rect><rect x="778" y="271" width="10" height="10" rx="3" fill="#E9EFF4"><title>2026-07-10：0 次贡献</title></rect><rect x="778" y="284" width="10" height="10" rx="3" fill="#E9EFF4"><title>2026-07-11：0 次贡献</title></rect><rect x="791" y="206" width="10" height="10" rx="3" fill="#E9EFF4"><title>2026-07-12：0 次贡献</title></rect><rect x="791" y="219" width="10" height="10" rx="3" fill="#E9EFF4"><title>2026-07-13：0 次贡献</title></rect><rect x="791" y="232" width="10" height="10" rx="3" fill="#E9EFF4"><title>2026-07-14：0 次贡献</title></rect><rect x="791" y="245" width="10" height="10" rx="3" fill="#67BDB3"><title>2026-07-15：10 次贡献</title></rect><rect x="791" y="258" width="10" height="10" rx="3" fill="#E9EFF4"><title>2026-07-16：0 次贡献</title></rect><rect x="791" y="271" width="10" height="10" rx="3" fill="#DDE9FF"><title>2026-07-17：1 次贡献</title></rect><rect x="791" y="284" width="10" height="10" rx="3" fill="#E9EFF4"><title>2026-07-18：0 次贡献</title></rect><text x="727" y="191" class="micro">少</text><rect x="750" y="181" width="9" height="9" rx="3" fill="#E9EFF4"/><rect x="764" y="181" width="9" height="9" rx="3" fill="#DDE9FF"/><rect x="778" y="181" width="9" height="9" rx="3" fill="#C4CBFF"/><rect x="792" y="181" width="9" height="9" rx="3" fill="#8C93F4"/><rect x="806" y="181" width="9" height="9" rx="3" fill="#67BDB3"/><text x="824" y="191" class="micro">多</text><circle cx="35" cy="318" r="3" fill="#8C93F4" opacity="0.72"/><text x="46" y="322" class="micro">提交 10 · Pull Request 0 · Issue 0 · 更新于 2026-07-18 11:35</text></svg>