<svg xmlns="http://www.w3.org/2000/svg" width="1200" height="235" viewBox="0 0 1200 235" role="img" aria-label="HashMM-RAG-Agent · A local-first agent workspace">
<title>HashMM-RAG-Agent · A local-first agent workspace</title>
<defs>
  <linearGradient id="paper" x2="1" y2="1"><stop stop-color="#F6FBFF"/><stop offset=".55" stop-color="#F3FAFB"/><stop offset="1" stop-color="#EBF8F0"/></linearGradient>
  <linearGradient id="accent"><stop stop-color="#69AFDD"/><stop offset="1" stop-color="#68C4AC"/></linearGradient>
  <radialGradient id="glow"><stop stop-color="#A9D9EF" stop-opacity=".38"/><stop offset="1" stop-color="#A9D9EF" stop-opacity="0"/></radialGradient>
  <pattern id="dots" width="24" height="24" patternUnits="userSpaceOnUse"><circle cx="2" cy="2" r="1" fill="#A3BCC8" opacity=".23"/></pattern>
  <clipPath id="clip"><rect x="1" y="1" width="1198" height="233" rx="28"/></clipPath>
  <style>text{font-family:'Segoe UI','Microsoft YaHei','PingFang SC','Noto Sans CJK SC',sans-serif}.flow{stroke-dasharray:14 180}.flow-slow{stroke-dasharray:10 240}</style>
</defs>
<g clip-path="url(#clip)"><rect width="1200" height="235" fill="url(#paper)"/><rect x="36" y="14" width="30" height="3" rx="1.5" fill="url(#accent)"/><text x="36" y="82" font-size="42" fill="#243B53" font-weight="700" >HashMM-RAG-Agent</text><text x="36" y="129" font-size="25" fill="#526F7B" font-weight="400" >A local-first agent workspace</text><text x="36" y="182" font-size="21" fill="#397565" font-weight="500" >Historical open-source edition · RAG · Durable tasks</text><g transform="translate(958 55)"><g class="project-motif" data-kind="hashmm" fill="#FFFFFF" fill-opacity=".85" stroke="#80B8BD" stroke-width="2" stroke-linecap="round" stroke-linejoin="round"><rect x="4" y="8" width="47" height="56" rx="10"/><path d="M15 25 H39 M15 37 H33 M51 37 H88 V65 H119 M51 97 H88 V65"/><rect x="4" y="78" width="47" height="37" rx="10"/><circle cx="142" cy="65" r="26"/><path d="M132 65 L139 72 L153 57"/></g></g><path d="M36 217 H820" stroke="#DCEAEA"/><path class="flow-slow" d="M36 217 H820" stroke="#69B6B5" stroke-width="2"/></g>
<rect x="1" y="1" width="1198" height="233" rx="28" fill="none" stroke="#DDEBEA"/>
</svg>
