<svg xmlns="http://www.w3.org/2000/svg" width="1200" height="205" viewBox="0 0 1200 205" role="img" aria-label="autumn-jobs-crawler · 从官方招聘公告到结构化信息">
<title>autumn-jobs-crawler · 从官方招聘公告到结构化信息</title>
<defs>
  <linearGradient id="paper" x2="1" y2="1"><stop stop-color="#F6FBFF"/><stop offset=".55" stop-color="#F3FAFB"/><stop offset="1" stop-color="#EBF8F0"/></linearGradient>
  <linearGradient id="accent"><stop stop-color="#69AFDD"/><stop offset="1" stop-color="#68C4AC"/></linearGradient>
  <radialGradient id="glow"><stop stop-color="#A9D9EF" stop-opacity=".38"/><stop offset="1" stop-color="#A9D9EF" stop-opacity="0"/></radialGradient>
  <pattern id="dots" width="24" height="24" patternUnits="userSpaceOnUse"><circle cx="2" cy="2" r="1" fill="#A3BCC8" opacity=".23"/></pattern>
  <clipPath id="clip"><rect x="1" y="1" width="1198" height="203" rx="28"/></clipPath>
  <style>text{font-family:'Segoe UI','Microsoft YaHei','PingFang SC','Noto Sans CJK SC',sans-serif}.flow{stroke-dasharray:14 180}.flow-slow{stroke-dasharray:10 240}</style>
</defs>
<g clip-path="url(#clip)"><rect width="1200" height="205" fill="url(#paper)"/><rect x="36" y="32" width="30" height="4" rx="2" fill="url(#accent)"/><text x="36" y="87" font-size="40" fill="#243B53" font-weight="700" >autumn-jobs-crawler</text><text x="36" y="132" font-size="25" fill="#607D8B" font-weight="400" >从官方招聘公告到结构化信息</text><text x="36" y="176" font-size="20" fill="#309F8B" font-weight="500" >Python · 安全聚合 · Excel 导出</text><path d="M820 95 C885 20 925 165 1000 95 S1100 55 1160 95" fill="none" stroke="#D4E8E9" stroke-width="12"/><path class="flow" d="M820 95 C885 20 925 165 1000 95 S1100 55 1160 95" fill="none" stroke="#69B6B5" stroke-width="3"/><circle cx="850" cy="95" r="8" fill="#FFFFFF" stroke="#84BFC5" stroke-width="2"/><circle cx="990" cy="95" r="8" fill="#FFFFFF" stroke="#84BFC5" stroke-width="2"/><circle cx="1130" cy="95" r="8" fill="#FFFFFF" stroke="#84BFC5" stroke-width="2"/></g>
<rect x="1" y="1" width="1198" height="203" rx="28" fill="none" stroke="#DDEBEA"/>
</svg>
